<svg xmlns="http://www.w3.org/2000/svg" viewBox="0 0 1440 100" width="100%">
  <path d="M -22.5 29 Q -11.25 29 0 15 Q 22.5 -13 45 15 Q 56.25 29 67.5 29 Q 78.75 29 90 15 Q 112.5 -13 135 15 Q 146.25 29 157.5 29 Q 168.75 29 180 15 Q 202.5 -13 225 15 Q 236.25 29 247.5 29 Q 258.75 29 270 15 Q 292.5 -13 315 15 Q 326.25 29 337.5 29 Q 348.75 29 360 15 Q 382.5 -13 405 15 Q 416.25 29 427.5 29 Q 438.75 29 450 15 Q 472.5 -13 495 15 Q 506.25 29 517.5 29 Q 528.75 29 540 15 Q 562.5 -13 585 15 Q 596.25 29 607.5 29 Q 618.75 29 630 15 Q 652.5 -13 675 15 Q 686.25 29 697.5 29 Q 708.75 29 720 15 Q 742.5 -13 765 15 Q 776.25 29 787.5 29 Q 798.75 29 810 15 Q 832.5 -13 855 15 Q 866.25 29 877.5 29 Q 888.75 29 900 15 Q 922.5 -13 945 15 Q 956.25 29 967.5 29 Q 978.75 29 990 15 Q 1012.5 -13 1035 15 Q 1046.25 29 1057.5 29 Q 1068.75 29 1080 15 Q 1102.5 -13 1125 15 Q 1136.25 29 1147.5 29 Q 1158.75 29 1170 15 Q 1192.5 -13 1215 15 Q 1226.25 29 1237.5 29 Q 1248.75 29 1260 15 Q 1282.5 -13 1305 15 Q 1316.25 29 1327.5 29 Q 1338.75 29 1350 15 Q 1372.5 -13 1395 15 Q 1406.25 29 1417.5 29 Q 1428.75 29 1440 15 Q 1462.5 -13 1485 15 Q 1496.25 29 1507.5 29" fill="none" stroke="#ffa71ad9" stroke-width="2" transform="translate(0, 35)"></path>
</svg>